<?xml version="1.0" encoding="UTF-8" standalone="no"?>
<svg
   xmlns="http://www.w3.org/2000/svg"
   viewBox="0 0 1349 762"
   id="svg2"
   version="1.1">
  <metadata
     id="metadata8">
    <rdf:RDF>
      <cc:Work
         rdf:about="">
        <dc:format>image/svg+xml</dc:format>
        <dc:type
           rdf:resource="http://purl.org/dc/dcmitype/StillImage" />
        <dc:title></dc:title>
      </cc:Work>
    </rdf:RDF>
    <path
       id="path28"
       d="m 1186.3955,732.6265 c -6.7973,-1.50009 -12.0643,-5.71891 -14.9933,-12.00947 -2.6203,-5.62729 -2.9347,-9.15914 -1.3301,-14.93781 2.8775,-10.36227 16.0336,-16.77865 24.9494,-12.1681 l 2.9222,1.51113 0.2782,13.65691 c 0.1912,9.39197 0.6468,13.77937 1.4586,14.04905 2.5976,0.86286 9.3519,-7.03183 13.7682,-16.09287 5.9519,-12.21153 8.5513,-18.50952 8.5513,-20.71845 0,-1.00588 -1.4026,-4.20762 -3.1168,-7.11497 -1.7142,-2.90735 -3.5218,-6.18965 -4.0167,-7.294 -0.495,-1.10436 -2.0519,-4.03292 -3.4598,-6.50792 -1.4079,-2.475 -4.3674,-7.875 -6.5766,-12 -2.2093,-4.125 -5.0103,-9.3 -6.2245,-11.5 -7.4526,-13.50297 -11.39,-20.75901 -14.3799,-26.5 -1.8619,-3.575 -4.1735,-7.85 -5.1368,-9.5 -0.9634,-1.65 -3.7988,-6.825 -6.3009,-11.5 -8.3027,-15.51315 -7.8819,-14.98442 -13.788,-17.32783 -4.0692,-1.61458 -5.5819,-2.7571 -5.8149,-4.39188 -0.458,-3.21346 2.209,-3.57207 22.5763,-3.03565 15.6975,0.41342 18.1989,0.71417 21.7386,2.61361 5.1219,2.74847 12.7098,10.03516 14.908,14.3162 0.9391,1.82905 3.369,6.34943 5.3998,10.04529 2.0307,3.69586 5.5702,10.22086 7.8656,14.5 2.2954,4.27914 5.2968,9.80526 6.6698,12.28026 1.373,2.475 3.7365,6.8734 5.2523,9.77422 1.5158,2.90083 3.0542,4.92583 3.4186,4.5 0.3644,-0.42582 2.1296,-4.59922 3.9227,-9.27422 1.7931,-4.675 4.3859,-11.425 5.7617,-15 1.3758,-3.575 3.6164,-9.425 4.979,-13 1.3626,-3.575 3.3426,-8.60842 4.4,-11.18538 2.5801,-6.28794 2.4581,-7.10557 -1.3275,-8.90245 -9.773,-4.63883 -11.2572,-5.57294 -11.5866,-7.29234 -0.1981,-1.0341 0.2466,-2.26471 0.9882,-2.73469 0.7416,-0.46998 9.9249,-0.86141 20.4073,-0.86983 14.9006,-0.012 19.4824,0.29437 21,1.4041 1.9032,1.39171 1.8948,1.46874 -0.4345,3.94813 -1.3066,1.39079 -3.716,2.82312 -5.3543,3.18295 -1.6382,0.35982 -4.8442,1.4857 -7.1244,2.50194 -3.4278,1.52775 -4.4572,2.67886 -5.9449,6.64764 -0.9895,2.63996 -2.452,6.0739 -3.25,7.63097 -0.7979,1.55707 -1.4661,3.35707 -1.4847,4 -0.019,0.64293 -0.9034,2.96896 -1.9661,5.16896 -1.0627,2.2 -1.9474,4.6975 -1.9661,5.55 -0.019,0.8525 -0.394,1.9775 -0.8341,2.5 -0.44,0.5225 -1.7441,3.425 -2.8979,6.45 -1.1539,3.025 -3.7548,9.775 -5.7799,15 -3.9039,10.07229 -5.0012,12.9298 -8.6402,22.5 -1.2548,3.3 -2.6416,6.4275 -3.0816,6.95 -0.4401,0.5225 -0.8155,1.6475 -0.8341,2.5 -0.019,0.8525 -0.9034,3.35 -1.9661,5.55 -1.0627,2.2 -1.9474,4.60557 -1.9661,5.34571 -0.019,0.74014 -0.6604,2.54014 -1.4261,4 -0.7657,1.45986 -2.0721,4.45429 -2.9032,6.65429 -11.9606,31.66244 -20.5197,43.33202 -33.7046,45.95344 -1.925,0.38273 -4.175,0.8317 -5,0.99772 -0.825,0.16601 -3.797,-0.20508 -6.6045,-0.82466 z m 16.6558,-3.67687 c 4.9817,-2.50753 11.4412,-9.24713 15.4995,-16.1717 1.8971,-3.2368 3.4492,-6.11066 3.4492,-6.38637 0,-0.27571 0.8204,-2.3891 1.8231,-4.69642 3.0572,-7.03496 4.0347,-9.5222 12.8495,-32.69514 1.3599,-3.575 3.7572,-9.65 5.3274,-13.5 1.5702,-3.85 4.0576,-10.15 5.5275,-14 5.2042,-13.63097 7.6909,-20.10346 11.1417,-29 1.92,-4.95 4.0931,-10.575 4.8292,-12.5 7.4338,-19.44077 7.2868,-19.19366 12.7736,-21.47078 2.3254,-0.96508 5.9337,-2.45553 8.0186,-3.31212 2.291,-0.94131 3.6756,-2.13142 3.5,-3.00838 -0.2417,-1.20683 -3.4873,-1.45095 -19.2906,-1.45095 -15.8033,0 -19.0489,0.24412 -19.2906,1.45095 -0.18,0.89899 1.3417,2.12136 4,3.21325 8.2921,3.40585 10.7906,4.90766 10.7898,6.4855 -10e-4,1.83762 -3.2274,10.65406 -4.2866,11.71323 -0.3919,0.39195 -0.7126,1.33732 -0.7126,2.10083 0,0.76351 -0.8204,3.27601 -1.8231,5.58333 -2.4792,5.70484 -4.103,9.83004 -10.7049,27.19514 -3.1044,8.16563 -5.211,11.77935 -6.4282,11.02709 -0.8073,-0.49899 -3.477,-5.16171 -12.3254,-21.52709 -1.9329,-3.575 -5.1213,-9.425 -7.0852,-13 -1.964,-3.575 -5.0475,-9.425 -6.8521,-13 -4.4557,-8.82694 -12.8275,-17.2019 -19.291,-19.29824 -5.3714,-1.74216 -37.6952,-2.83003 -39.2057,-1.31948 -1.0433,1.04324 2.3379,3.42427 6.7321,4.74082 3.7638,1.12766 3.9441,1.36901 11.3779,15.233 2.4102,4.49503 5.4979,10.19128 6.8616,12.65834 1.3636,2.46706 4.4104,8.08556 6.7706,12.48556 4.7418,8.83986 7.1544,13.29207 11.6508,21.5 1.6572,3.025 5.6384,10.45 8.8473,16.5 3.2088,6.05 6.9983,13.025 8.421,15.5 1.4228,2.475 3.8377,7.02231 5.3665,10.10514 l 2.7797,5.60514 -2.5756,6.89486 c -5.815,15.56688 -12.2565,26.25999 -18.3544,30.46923 -5.7878,3.9951 -6.5799,2.48587 -7.1619,-13.64528 l -0.5,-13.85861 -3.1788,-0.90947 c -4.3476,-1.24388 -11.6216,8.7e-4 -14.8514,2.54138 -3.2082,2.52361 -6.4698,9.70976 -6.4698,14.25479 0,4.09996 2.4902,11.32197 4.774,13.84555 5.744,6.34705 18.5196,8.05511 27.2773,3.6469 z M 105.5,686.55875 C 98.125234,685.0803 87.128277,679.92698 82.273439,675.67447 80.280184,673.92851 77.378237,670.4994 75.824669,668.05422 73.462619,664.33656 73,662.53208 73,657.03635 c 0,-5.38601 0.457322,-7.24509 2.534042,-10.30126 C 78.915255,641.75919 84.528093,639 91.269032,639 c 9.120288,0 9.153488,0.0705 9.730968,20.667 l 0.5,17.833 8,1.12605 c 26.19683,3.68739 39.49454,-8.4332 39.50317,-36.00632 0.005,-14.72492 -2.69559,-23.27427 -9.48963,-30.04599 -5.89925,-5.87988 -10.77647,-7.69593 -22.90988,-8.53057 -6.03417,-0.41507 -8.1554,-0.95587 -8.99488,-2.29317 -0.79808,-1.27134 -0.79805,-2.22866 9e-5,-3.5 0.86892,-1.38408 2.97677,-1.85584 10.08084,-2.25619 7.82123,-0.44076 9.44677,-0.86053 12.57652,-3.24771 8.36752,-6.38222 11.74862,-15.23947 11.70112,-30.65265 -0.0377,-12.23725 -1.85605,-18.88274 -6.87584,-25.1292 -6.38039,-7.93955 -16.26006,-10.35672 -26.44021,-6.46888 L 104,532.27172 v 17.32895 c 0,16.10918 -0.13615,17.40183 -1.93426,18.36415 -2.435395,1.30338 -10.518138,1.33942 -14.955933,0.0667 -4.247239,-1.21809 -9.912978,-7.48241 -10.738468,-11.87298 -0.885292,-4.70864 0.280939,-13.1168 2.097789,-15.1244 C 79.311108,540.10374 80,538.88776 80,538.33194 c 0,-2.08398 9.082322,-9.14484 16,-12.43886 13.48732,-6.42231 33.33597,-7.5427 51,-2.87878 15.09289,3.98504 27.33843,12.9718 32.93406,24.16965 2.76683,5.53692 3.06594,7.04998 3.06594,15.50902 0,7.95951 -0.36877,10.10125 -2.44461,14.19772 -5.28441,10.42829 -14.07757,17.212 -27.55539,21.25832 -2.475,0.74304 -4.5,1.78854 -4.5,2.32331 0,0.53478 1.97762,1.30993 4.39471,1.72256 14.51414,2.47775 28.60263,12.6263 34.33261,24.73127 1.82322,3.85169 2.16893,6.38958 2.18954,16.07385 0.0225,10.58203 -0.19713,11.94864 -2.75186,17.12033 -6.83787,13.84233 -22.51815,23.23185 -44.7803,26.81494 -8.54066,1.37462 -28.68982,1.16611 -36.3847,-0.37652 z m 47,-3.45498 c 3.85,-1.13994 7.9,-2.49919 9,-3.02056 1.1,-0.52137 3.67642,-1.6994 5.72538,-2.61784 4.80222,-2.15258 12.34564,-8.8048 15.17455,-13.38179 9.56331,-15.47279 8.04812,-34.14528 -3.80697,-46.91522 -5.68011,-6.11843 -18.5285,-12.49676 -27.59296,-13.69797 -7.6137,-1.00896 -9,-1.45749 -9,-2.91189 0,-1.4009 3.38425,-2.79334 10,-4.11447 6.36975,-1.272 16.02317,-6.56244 20.93257,-11.47184 8.53832,-8.53831 11.02404,-20.4019 6.97651,-33.29675 -4.518,-14.39373 -18.79822,-24.46165 -39.98451,-28.19011 -32.94988,-5.79867 -62.303998,7.40295 -62.291284,28.01467 0.006,9.74566 5.943495,15.48263 16.034927,15.49341 C 103.61528,567.00404 103,568.22874 103,548.41869 v -17.36733 l 3.25,-1.69473 c 4.51321,-2.35343 18.12956,-2.46895 22.25,-0.18877 4.94148,2.73454 9.65631,7.99743 12.39169,13.83214 2.38297,5.083 2.57474,6.52355 2.52931,19 -0.042,11.53717 -0.36739,14.26978 -2.238,18.79446 C 136.20097,592.8451 130.43591,597 118.69733,597 c -6.39262,0 -7.78692,0.29889 -8.61534,1.8468 -1.66857,3.11774 0.65975,4.1524 9.36801,4.16297 6.3238,0.008 9.12217,0.51011 13.05,2.34308 5.95409,2.77855 11.87744,9.03644 14.65006,15.47748 4.36542,10.14126 4.28321,33.41462 -0.15347,43.44446 -2.66272,6.01954 -10.65777,13.1156 -17.27635,15.33377 -6.33253,2.12229 -19.38594,2.13619 -25.22024,0.0268 l -4,-1.44616 L 100,660.84462 99.5,643.5 96,641.71077 c -6.173157,-3.15578 -16.074372,0.51831 -19.942093,7.39999 -7.412783,13.18926 7.824349,31.17177 30.442093,35.92705 2.2,0.46254 11.875,0.68294 21.5,0.48978 14.0435,-0.28183 18.8826,-0.76057 24.5,-2.42382 z m 91.39247,3.44677 c -7.56513,-2.08625 -14.80493,-6.63924 -20.41515,-12.83873 -5.17098,-5.71412 -12.46664,-18.80043 -12.48814,-22.40014 -0.006,-0.99642 -0.68096,-4.02069 -1.5,-6.7206 C 208.50663,641.35221 208,635.36789 208,627.00103 c 0,-14.71584 2.06231,-24.68894 7.23777,-35.00103 4.04198,-8.05365 13.51195,-17.82168 20.26223,-20.89999 2.75,-1.25407 6.08062,-2.8021 7.40139,-3.44007 1.43153,-0.69147 7.48963,-1.15994 15,-1.15994 12.18915,0 12.80343,0.10388 18.90064,3.19619 4.31487,2.18836 6.4466,2.819 6.76051,2 0.25216,-0.65791 0.26921,-6.59619 0.0379,-13.19619 -0.23131,-6.6 -0.46104,-15.20398 -0.5105,-19.11995 L 283,532.2601 278.50055,531.75295 C 273.15094,531.14997 271,529.60846 271,526.37756 V 524 h 18.53984 c 20.08202,0 23.0115,0.64458 28.19837,6.20459 5.12355,5.49211 5.2393,7.21104 5.25097,77.97398 0.012,73.00616 -0.48324,68.05532 6.93343,69.30836 4.97512,0.84054 6.63249,2.60735 5.1116,5.44915 -1.02414,1.91362 -1.99407,2.06286 -13.31939,2.04937 -13.11314,-0.0156 -17.65945,-1.03159 -24.80694,-5.5436 -2.22142,-1.40233 -4.97859,-4.14225 -6.12703,-6.08871 l -2.08808,-3.53903 -4.9099,5.12049 c -8.96995,9.3547 -17.29364,13.10408 -28.78287,12.96516 -3.575,-0.0432 -8.57339,-0.65038 -11.10753,-1.34922 z m 27.10707,-3.63939 c 2.47474,-1.30527 7.25199,-5.19425 10.61612,-8.64218 C 284.97978,670.82104 288.1662,668 288.6966,668 c 0.5304,0 2.4154,2.02054 4.1889,4.49009 1.77349,2.46955 5.31452,5.7149 7.86895,7.2119 4.42386,2.59255 5.28686,2.72361 18.17294,2.75991 11.67392,0.0329 13.57231,-0.18328 13.84788,-1.57679 0.24661,-1.24709 -0.80621,-1.76421 -4.62249,-2.27046 -2.71801,-0.36055 -5.42161,-1.23365 -6.008,-1.9402 -0.72584,-0.87459 -1.15851,-23.2922 -1.35547,-70.22955 L 320.5,537.5 l -2.26576,-3.64354 c -3.7568,-6.04125 -7.44978,-7.14841 -26.23424,-7.86504 -9.075,-0.34621 -17.09093,-0.33961 -17.81319,0.0147 -1.96895,0.96581 1.22839,3.27904 6.21148,4.49392 l 4.10171,1 0.76242,14.5 c 0.88994,16.92523 0.22231,26.87676 -1.85665,27.67453 -0.78167,0.29996 -2.57421,-0.2101 -3.98343,-1.13346 -6.80468,-4.4586 -25.67026,-6.11349 -35.54086,-3.11765 -21.68148,6.58059 -34.09459,27.31537 -34.16953,57.07658 -0.077,30.55403 12.97894,52.54178 34.78805,58.58742 1.65,0.4574 7.275,0.68882 12.5,0.51429 7.66121,-0.25591 10.37092,-0.77669 13.99954,-2.69056 z m -12.58233,-6.21354 c -3.72082,-3.13087 -6.68585,-9.81421 -8.96056,-20.19761 -2.73264,-12.4737 -2.42693,-49.73639 0.50711,-61.81297 C 253.57385,579.82786 258.78188,573 266.50581,573 c 5.04748,0 14.02762,4.42096 16.90918,8.32446 2.03615,2.75828 2.08084,3.72755 1.90699,41.35862 l -0.17801,38.53415 -2.82199,5.59794 c -3.83308,7.60366 -8.77789,11.39224 -15.60834,11.95867 -4.57308,0.37924 -5.71911,0.0924 -8.29643,-2.07623 z M 272.5785,674.75 c 2.65596,-1.79662 6.09607,-5.37059 7.69263,-7.99197 l 2.88812,-4.74198 0.17037,-39.56459 0.17038,-39.56459 -2.5,-1.97745 c -11.06501,-8.7522 -20.59399,-7.42854 -25.90408,3.59831 -5.83945,12.12613 -7.92164,46.00457 -4.17886,67.99227 2.70748,15.90557 4.45363,20.12675 9.77787,23.6373 3.96175,2.61218 6.39018,2.32868 11.88357,-1.3873 z M 428,686.48172 c -20.08812,-4.59515 -31.04145,-19.7169 -24.09999,-33.27156 3.6246,-7.07781 12.96546,-11.17896 20.67003,-9.07528 6.48927,1.77186 6.42996,1.60275 6.42996,18.33258 0,18.02477 0.25211,18.53254 9.20162,18.53254 13.1052,0 20.50401,-7.30047 24.44853,-24.12356 1.50573,-6.42186 1.77742,-14.71448 2.09943,-64.08059 0.24434,-37.4599 0.0226,-57.3531 -0.65351,-58.61634 -0.70117,-1.31015 -2.57797,-2.11843 -5.96092,-2.56719 C 455.15721,530.95197 454,529.87537 454,525.90455 c 0,-1.87513 0.95965,-1.92413 32.66698,-1.66821 22.62798,0.18263 32.77943,0.60128 33.03288,1.36228 0.749,2.24895 -3.22407,5.44807 -7.69986,6.19993 l -4.5,0.75593 -0.57291,56.97276 c -0.38138,37.92621 -0.96146,58.58819 -1.73515,61.80491 -4.32876,17.99749 -19.8692,31.5335 -40.3645,35.15823 -9.91979,1.75439 -29.13987,1.74986 -36.82744,-0.009 z m 43.84678,-3.49608 c 13.79916,-4.85849 22.332,-12.0292 28.24405,-23.73532 L 503.5,652.5 504,593 c 0.275,-32.725 0.84799,-60.0365 1.27331,-60.69222 0.42532,-0.65572 2.77332,-1.49215 5.21778,-1.85871 4.58154,-0.68705 7.16753,-2.57439 6.03598,-4.40527 C 516.10219,525.35634 505.66063,525 485.94098,525 461.17625,525 456,525.23815 456,526.37756 c 0,2.08389 2.02809,3.33115 7,4.30493 l 4.5,0.88135 v 61.46808 c 0,61.22153 -0.009,61.49701 -2.28149,68.68162 -2.67183,8.44774 -7.22869,14.87848 -12.76502,18.01428 -3.16396,1.79208 -5.53541,2.24256 -11.87475,2.25573 C 428.86137,682.00788 429,682.23632 429,662.90403 c 0,-9.71011 -0.39483,-16.03001 -1.02581,-16.41998 -0.5642,-0.34869 -3.9888,-0.65108 -7.61023,-0.67197 -7.06306,-0.0408 -9.8357,1.26038 -13.69181,6.42522 -2.42539,3.24855 -3.29151,11.356 -1.72139,16.1135 1.54164,4.67121 9.63725,11.91061 15.76186,14.09485 8.77568,3.12969 11.68232,3.44935 28.28738,3.11091 13.95102,-0.28436 17.48047,-0.68152 22.84678,-2.57092 z M 581.5,686.76518 c -11.01043,-2.11272 -19.77296,-6.51122 -28.09931,-14.1049 -12.44003,-11.34539 -17.37787,-24.7472 -17.37598,-47.16028 10e-4,-14.47428 1.44076,-20.89758 7.25169,-32.35723 3.44712,-6.79803 13.75738,-17.49151 19.8486,-20.58635 10.68252,-5.4276 13.74764,-6.0605 28.875,-5.96223 14.65127,0.0952 18.85742,0.89392 29.5,5.60208 15.61415,6.90752 26.53922,23.65609 26.48494,40.60252 -0.0152,4.75668 -1.88324,11.59846 -3.56706,13.06476 -1.70328,1.48323 -9.73326,3.32137 -18.35125,4.20078 -4.71165,0.4808 -11.49163,1.32896 -15.06663,1.88481 -3.575,0.55586 -10.325,1.02361 -15,1.03945 -4.675,0.0158 -10.8625,0.31256 -13.75,0.65939 l -5.25,0.6306 0.0235,7.61071 c 0.0401,12.97975 4.60406,26.57625 11.02951,32.85831 3.72712,3.64396 10.31068,4.91738 20.12133,3.89196 11.05476,-1.15545 20.37817,-9.12273 24.48917,-20.92711 2.0697,-5.94297 2.30828,-6.21245 5.5,-6.21245 3.00689,0 3.36653,0.30935 3.641,3.13188 0.80688,8.29769 -11.09855,23.93813 -21.77955,28.61229 -10.31705,4.51491 -25.91565,5.94055 -38.525,3.52101 z m 36.91187,-4.73569 c 11.36533,-5.47094 17.38806,-12.09288 20.73595,-22.79899 1.53042,-4.89409 1.53042,-5.32973 0,-6.11487 C 636.67556,651.8473 635,652.86741 635,655.64089 c 0,2.95886 -4.1432,10.73683 -7.84241,14.72246 -8.55326,9.21551 -24.36567,13.48054 -34.29851,9.25123 -10.18158,-4.33522 -16.27602,-16.57243 -17.47284,-35.08421 -0.61258,-9.47506 -0.51349,-10.38981 1.2236,-11.29568 1.03959,-0.54214 7.51516,-1.25773 14.39016,-1.59021 25.02654,-1.2103 51.40411,-5.06227 53.06469,-7.74915 1.59621,-2.58273 2.19621,-12.1051 1.15764,-18.37266 -1.42692,-8.61115 -5.32283,-16.33739 -11.2998,-22.40938 -7.27823,-7.39394 -12.00345,-9.67729 -27.16194,-13.12536 -28.46741,-6.47541 -51.60439,3.00217 -62.78829,25.71991 -4.36237,8.86121 -5.89457,15.99714 -5.93668,27.64883 -0.0778,21.53747 4.82333,36.47679 15.46438,47.13723 6.57968,6.59167 11.8582,9.74186 21,12.53266 8.93346,2.7272 9.89976,2.83068 24,2.57024 12.44109,-0.22981 13.29716,-0.38318 19.91187,-3.56731 z m -42.04084,-55.74485 c -4.66641,-3.24318 -1.27539,-36.44008 4.89861,-47.9558 3.70084,-6.90278 10.67817,-9.61164 16.42572,-6.37709 C 605.72534,576.47079 609,586.439 609,606.36355 c 0,13.41585 -1.13852,17.97794 -4.73903,18.98941 -3.32308,0.93353 -26.76074,1.71648 -27.88994,0.93168 z m 24.54742,-1.91833 c 4.97094,-0.99419 6.50065,-4.93642 6.54466,-16.86631 0.0543,-14.71344 -3.09396,-26.92567 -8.1708,-31.69511 -3.21354,-3.01897 -10.10663,-3.18789 -13.26988,-0.32519 -5.03584,4.55737 -9.01944,20.67924 -9.14747,37.0203 -0.0474,6.05 -0.0387,11.3375 0.0194,11.75 0.12814,0.91003 19.58448,1.00423 24.02406,0.11631 z M 897.5,686.8787 c -22.49446,-2.127 -38.82419,-14.04463 -46.77071,-34.1338 -4.50418,-11.3868 -5.13766,-39.25193 -1.11951,-49.2449 7.87244,-19.57845 15.99538,-28.09573 33.16243,-34.77235 C 887.786,566.77769 890.36984,566.5 903.5,566.5 c 12.17169,0 15.94277,0.35104 20,1.86177 17.01404,6.33525 26.12743,14.18901 32.0334,27.60583 2.57305,5.84531 2.9111,27.09696 0.4666,29.33315 -2.19514,2.00807 -9.19917,3.77027 -18.93337,4.76358 -4.71165,0.4808 -11.49163,1.32896 -15.06663,1.88481 -3.575,0.55586 -10.325,1.02361 -15,1.03945 -4.675,0.0158 -10.8625,0.31256 -13.75,0.65939 l -5.25,0.6306 v 8.17237 c 0,14.56326 4.95401,28.53186 11.86391,33.45214 8.43261,6.00455 25.80809,3.87101 35.00574,-4.29836 3.48657,-3.09678 7.11532,-9.19112 8.74975,-14.69484 1.6539,-5.56928 3.67917,-7.18661 7.06657,-5.6432 2.68542,1.22356 2.81228,2.52017 0.87209,8.91337 -3.1501,10.37998 -10.89085,18.51273 -22.86303,24.02081 -3.26442,1.50188 -18.09489,4.06879 -21.1688,3.66398 -0.56442,-0.0743 -5.07623,-0.5181 -10.02623,-0.98615 z m 32.01216,-4.95807 c 7.36115,-3.47798 15.31214,-10.66893 18.2464,-16.50223 2.7303,-5.42782 3.74672,-11.48809 2.09769,-12.50724 -1.4779,-0.9134 -3.85625,0.70766 -3.85625,2.62838 0,2.63212 -3.90231,10.27961 -7.10912,13.93196 -9.1014,10.36592 -26.54679,15.41213 -36.55873,10.57489 -4.99852,-2.41502 -9.89926,-7.87696 -12.51082,-13.94346 -3.23947,-7.52513 -5.09543,-31.18081 -2.57133,-32.77377 0.6875,-0.43388 6.875,-1.10362 13.75,-1.48832 26.37678,-1.47591 52.43289,-5.3052 54.06469,-7.94551 1.36714,-2.21208 2.24016,-11.65389 1.54638,-16.72434 -3.28841,-24.03344 -24.12345,-39.54767 -53.11107,-39.54767 -26.79556,0 -44.76845,12.92367 -52.5689,37.80042 -1.45504,4.64031 -1.90835,9.10965 -1.9182,18.91213 -0.0239,23.83218 6.14742,39.64748 19.23327,49.28886 11.53065,8.49554 21.43333,11.22826 41.00116,11.31461 13.33566,0.0588 13.9425,-0.0316 20.26483,-3.01871 z m -42.81227,-56.3636 c -1.16638,-1.16638 -1.48251,-2.88302 -1.16548,-6.32877 0.23927,-2.60054 0.92756,-10.04891 1.52952,-16.55193 1.60822,-17.37351 5.35814,-27.07658 11.61784,-30.06162 4.1931,-1.99955 5.99806,-1.94747 9.81823,0.2833 7.28438,4.25366 10.62752,13.59853 11.25482,31.45993 0.37951,10.80581 0.16992,13.48254 -1.31319,16.7715 -2.06337,4.57574 -2.02124,4.56314 -18.04143,5.39773 -10.32491,0.5379 -12.33458,0.39559 -13.70031,-0.97014 z M 915.42218,623 c 3.97279,-3.99441 3.41675,-30.22584 -0.8373,-39.5 -3.72012,-8.11016 -5.44516,-9.66348 -10.82203,-9.74477 -2.57278,-0.0389 -5.4016,0.53 -6.28626,1.2642 -5.03982,4.18268 -8.43863,17.44963 -9.18033,35.83463 l -0.57909,14.35407 13.10657,-0.35407 c 9.9613,-0.26909 13.46458,-0.71402 14.59844,-1.85406 z M 712.8168,685.95728 c -0.92576,-0.54004 -2.89996,-3.56386 -4.38712,-6.71959 -4.39934,-9.33539 -13.20847,-27.7837 -20.16863,-42.23769 -3.57543,-7.425 -9.19324,-19.125 -12.48402,-26 -16.24502,-33.93858 -15.5998,-32.80216 -19.05465,-33.56098 -7.14553,-1.56942 -10.47111,-6.71103 -5.19688,-8.03478 1.38902,-0.34862 10.05152,-0.41455 19.25,-0.1465 27.85936,0.81183 27.27959,0.22865 52.61425,52.92314 3.61765,7.52448 7.01057,13.9485 7.53983,14.2756 0.52925,0.32709 1.40909,-0.8793 1.9552,-2.68088 1.89162,-6.24034 4.25952,-12.27996 5.18523,-13.2256 0.5115,-0.5225 0.93276,-1.6475 0.93615,-2.5 0.003,-0.8525 0.67839,-2.83894 1.5,-4.41431 1.94995,-3.73886 1.88461,-5.44357 -0.39087,-10.19786 -1.0366,-2.16581 -4.1742,-8.73685 -6.97245,-14.60232 -4.65928,-9.76642 -5.36373,-10.72207 -8.36528,-11.34816 C 720.16357,576.52491 717,574.29127 717,571.996 c 0,-2.86448 2.91794,-3.25118 21.22925,-2.81343 14.61394,0.34935 16.72897,0.62502 20.77075,2.70714 6.97844,3.59495 13.03996,10.81315 18.72386,22.29683 8.75205,17.68252 17.99218,37.21419 18.71686,39.56346 0.9987,3.23759 3.12245,2.76904 4.53259,-1 0.66878,-1.7875 1.88983,-5.05 2.71345,-7.25 0.82363,-2.2 2.06941,-5.35 2.7684,-7 0.69899,-1.65 2.29417,-5.475 3.54484,-8.5 3.07991,-7.44938 4.48641,-10.81394 6.38923,-15.28393 0.88592,-2.08116 1.61077,-4.466 1.61077,-5.29966 0,-0.83365 0.66624,-2.8041 1.48054,-4.37878 1.44203,-2.78858 1.39575,-2.91307 -1.77972,-4.78664 -1.79314,-1.05798 -4.59688,-2.25732 -6.23054,-2.66521 -5.53546,-1.38206 -8.68466,-6.52206 -4.88849,-7.97879 C 807.45177,569.27314 816.59076,569 826.89066,569 c 14.59534,0 19.15535,0.31316 20.66821,1.41941 1.90326,1.39171 1.89478,1.46874 -0.43445,3.94813 -1.30657,1.39079 -3.716,2.82312 -5.35428,3.18295 -1.63829,0.35982 -4.85134,1.48259 -7.14012,2.49502 -3.86269,1.70865 -4.44013,2.50887 -8.04416,11.14764 -2.13551,5.11877 -4.67455,11.10685 -5.64231,13.30685 -0.96776,2.2 -2.69129,6.7 -3.83006,10 -3.76056,10.8976 -5.1016,14.50528 -6.04513,16.26269 -0.51301,0.95552 -2.56465,6.01231 -4.55919,11.23731 -1.99454,5.225 -4.23372,10.85 -4.97594,12.5 -0.74223,1.65 -2.99897,7.275 -5.01499,12.5 -6.33979,16.43111 -7.6848,19.0037 -10.27558,19.65394 -4.51577,1.13339 -6.5844,-0.99265 -12.434,-12.77907 -6.11911,-12.32949 -20.29385,-41.78104 -23.39025,-48.59907 -1.05512,-2.32331 -2.26319,-4.23581 -2.68459,-4.25 -0.77912,-0.0262 -2.17449,2.89649 -5.23931,10.9742 -1.86258,4.90905 -5.01037,12.68952 -7.14121,17.65113 -0.74431,1.73312 -1.3533,3.60915 -1.3533,4.16896 0,0.55981 -0.65438,2.2918 -1.45418,3.84887 -0.7998,1.55707 -3.08282,7.10604 -5.07337,12.33104 -3.9705,10.42215 -6.25076,15.10983 -7.89714,16.23469 -1.49916,1.02427 -4.75631,0.89058 -6.75851,-0.27741 z m 8.49075,-4.7933 C 722.2384,679.05417 723,677.00448 723,676.60912 c 0,-0.39537 0.82039,-2.60666 1.8231,-4.91398 1.0027,-2.30733 2.54276,-5.99514 3.42236,-8.19514 0.87959,-2.2 3.49552,-8.725 5.81317,-14.5 5.25442,-13.09272 7.66787,-19.30805 9.61774,-24.7685 0.83833,-2.34767 2.34705,-4.70885 3.3527,-5.24706 1.57626,-0.84358 2.20051,-0.18583 4.52566,4.7685 1.48345,3.16088 5.51879,11.59706 8.96741,18.74706 3.44862,7.15 9.46615,19.66607 13.37229,27.81349 7.07285,14.75253 7.11504,14.8122 10.25297,14.5 3.87854,-0.38588 3.58941,0.11916 11.34307,-19.81349 2.03248,-5.225 5.25168,-13.325 7.15376,-18 1.90208,-4.675 4.05953,-10.075 4.79432,-12 0.73479,-1.925 2.10714,-5.525 3.04966,-8 0.94252,-2.475 2.34325,-5.97777 3.11273,-7.78393 C 814.37042,617.40991 815,615.28768 815,614.5 c 0,-0.78768 0.62958,-2.90991 1.39906,-4.71607 0.76948,-1.80616 2.19595,-5.30893 3.16994,-7.78393 0.97399,-2.475 3.52595,-8.23367 5.67102,-12.79704 3.54224,-7.53567 4.30665,-8.47626 8.33006,-10.25 2.43645,-1.07413 6.45492,-2.84711 8.92992,-3.93996 4.7254,-2.08653 5.68388,-3.53171 2.75,-4.14637 -4.05517,-0.84957 -38.36064,0.30145 -38.03573,1.27618 0.37831,1.13493 3.01778,2.67978 10.03573,5.87378 5.64843,2.57071 5.79608,3.4918 2.16142,13.48341 -1.40052,3.85 -2.91644,8.125 -3.36871,9.5 -0.71912,2.18628 -8.60185,20.69777 -12.6263,29.65113 -0.77903,1.73312 -1.41641,3.78062 -1.41641,4.55 0,1.76772 -1.99152,3.79887 -3.72475,3.79887 -0.72861,0 -1.71108,-1.0125 -2.18326,-2.25 -1.05307,-2.75993 -11.11859,-23.89473 -19.39057,-40.71481 -4.41252,-8.97236 -7.43359,-13.7355 -10.7824,-17 -6.86085,-6.68812 -11.23737,-7.85612 -30.63235,-8.17516 -19.65996,-0.3234 -21.84962,0.61949 -10.90355,4.69517 l 4.88313,1.8182 7.42154,15.28554 c 6.76603,13.93541 7.33379,15.57505 6.42803,18.5633 -1.89193,6.24172 -4.25996,12.28196 -5.18583,13.22776 -0.5115,0.5225 -0.93276,1.6475 -0.93615,2.5 -0.003,0.8525 -0.6089,2.70499 -1.34558,4.11665 -0.73667,1.41166 -1.64998,3.80406 -2.02956,5.31644 -0.47027,1.87369 -1.23634,2.64623 -2.40443,2.42473 -1.82982,-0.34698 -2.47964,-1.55838 -15.72146,-29.30782 -4.7242,-9.9 -9.35521,-19.53921 -10.29113,-21.42048 -2.90319,-5.83557 -11.48148,-13.68391 -16.86389,-15.42887 -5.17469,-1.67761 -35.62107,-2.7007 -37.07592,-1.24585 -1.02022,1.02022 2.57484,3.58364 6.01252,4.28717 3.17815,0.65042 5.26132,3.32269 9.20494,11.80803 1.5337,3.3 5.82866,12.3 9.54436,20 6.86257,14.22123 12.06807,25.09083 24.90304,52 10.30597,21.607 10.41775,21.8288 11.96964,23.75 0.77748,0.9625 2.60726,1.75 4.06617,1.75 2.11496,0 2.99558,-0.77746 4.34501,-3.83602 z M 974.2,683.8 c -2.13247,-2.13247 -1.38547,-4.72083 1.55,-5.37076 6.95136,-1.53907 9.271,-2.66777 9.77615,-4.75694 0.28889,-1.19477 0.40118,-33.43488 0.24955,-71.6447 l -0.2757,-69.47239 -4.45509,-0.76047 c -4.99075,-0.85191 -8.64343,-3.79264 -7.71524,-6.21146 0.52408,-1.36573 3.15938,-1.58328 19.17878,-1.58328 16.25045,0 19.03485,0.23663 22.28135,1.89359 5.0857,2.59563 6.9308,4.88073 9.2355,11.43816 1.8896,5.3763 1.9747,8.46429 1.9747,71.69429 v 66.07601 l 3.4679,1.44898 c 1.9073,0.79693 4.3272,1.44897 5.3775,1.44897 2.9416,0 4.5216,2.44571 3.1888,4.93608 -1.0792,2.01657 -1.8104,2.06392 -31.8694,2.06392 -22.59484,0 -31.08347,-0.31867 -31.9648,-1.2 z m 61.3,-2.76837 c 0,-0.94547 -1.6025,-1.77645 -4.5,-2.33348 -8.0921,-1.55566 -7.4413,4.437 -8,-73.66818 l -0.5,-69.89995 -3,-3.18817 c -5.0655,-5.3832 -8.3494,-6.23959 -25.82852,-6.73562 -10.56896,-0.29992 -16.1871,-0.0906 -16.90762,0.62991 -1.65314,1.65314 0.67518,3.81114 4.84138,4.48723 6.86268,1.11365 6.39799,-4.25765 6.36296,73.54907 -0.0257,57.14283 -0.28544,70.96168 -1.36023,72.37753 -0.7542,0.99354 -3.33399,2.02487 -5.96819,2.38593 -4.25249,0.58286 -5.71556,1.95499 -3.9583,3.71225 0.37482,0.37481 13.76232,0.56231 29.75002,0.41667 24.7735,-0.22569 29.0685,-0.48178 29.0685,-1.73319 z m 15.4658,1.90445 c -1.4882,-2.7808 0.062,-4.53117 4.8014,-5.42023 7.8863,-1.47948 7.2328,3.13223 7.2328,-51.03922 v -48.45299 l -4.114,-0.65786 c -2.2627,-0.36182 -5.2856,-1.6656 -6.7175,-2.89728 -2.3089,-1.98606 -2.4421,-2.43385 -1.1773,-3.95787 1.2561,-1.51352 3.1601,-1.67469 15.9675,-1.35154 l 14.5413,0.3669 5.7522,3.83568 c 3.1637,2.10963 6.6818,5.14128 7.8181,6.73701 2.5705,3.60994 3.8259,3.63576 6.957,0.14305 4.8838,-5.44788 12.9493,-9.73043 22.4058,-11.89694 6.4991,-1.48895 7.3979,-1.47261 14.36,0.26106 5.8695,1.46161 8.1918,2.61433 11.0745,5.49703 3.8778,3.87782 7.1598,11.44111 7.1154,16.39712 -0.034,3.73308 -3.0862,10.60319 -6.0112,13.52818 -3.5498,3.54985 -12.3823,6.22859 -16.651,5.04996 C 1127.3244,607.14633 1127,606.33271 1127,590.7172 v -13.97282 l -4.1295,0.66034 c -5.2847,0.84505 -14.2922,6.81432 -17.9941,11.92459 L 1102,593.30008 v 40.74138 40.74138 l 4.0202,1.60858 c 2.2112,0.88472 4.8846,1.60858 5.941,1.60858 2.5007,0 3.375,1.5242 2.6139,4.55684 L 1113.9619,685 h -30.9458 c -30.2418,0 -30.9709,-0.047 -32.0503,-2.06392 z m 61.5342,-1.9084 c 0,-0.95733 -1.5239,-1.73248 -4.3566,-2.21606 C 1100.5292,677.51178 1101,680.483 1101,633.73055 v -42.02457 l 3.5199,-4.29557 c 4.2985,-5.24574 10.5156,-9.55303 16.9565,-11.74766 7.2556,-2.47225 7.5236,-1.95981 7.5236,14.38827 0,17.12797 0.1792,17.41954 10.2618,16.69813 6.088,-0.43559 7.2658,-0.86814 10.2565,-3.76688 4.1745,-4.04609 5.7509,-10.27801 4.4047,-17.41332 -1.1241,-5.95885 -2.7254,-8.55374 -7.5486,-12.23251 -3.3626,-2.56484 -4.5249,-2.82851 -14.0173,-3.17989 -10.2667,-0.38004 -10.4105,-0.35318 -17.7325,3.31367 -4.06,2.03324 -9.1028,5.45923 -11.2062,7.6133 -2.1033,2.15406 -4.5796,3.91648 -5.5027,3.91648 -0.9231,0 -2.9509,-1.6875 -4.5063,-3.75 -6.0494,-8.02157 -10.4193,-9.75752 -26.4722,-10.51601 -16.7968,-0.79365 -19.4261,0.74969 -8.1123,4.76155 l 5.6751,2.01236 0.2773,47.49605 c 0.1525,26.12283 0.043,48.46358 -0.244,49.64612 -0.5412,2.23228 -4.9827,4.34993 -9.1235,4.34993 -2.5122,0 -3.8832,1.42495 -2.9007,3.01478 0.4075,0.65926 11.0259,0.92201 30.309,0.75 25.3494,-0.22613 29.6819,-0.47969 29.6819,-1.7371 z M 833.13519,437.46086 c -2.23907,-0.97211 -6.92294,-1.46884 -14,-1.48472 -5.84935,-0.0131 -12.41886,-0.43742 -14.59891,-0.94289 -2.18005,-0.50547 -11.85505,-1.42798 -21.5,-2.05003 -9.64495,-0.62205 -18.66128,-1.62171 -20.03628,-2.22148 -1.375,-0.59978 -11.5,-1.72554 -22.5,-2.50171 -11,-0.77616 -22.7,-1.60304 -26,-1.8375 -3.3,-0.23446 -12.975,-1.09337 -21.5,-1.90868 -8.525,-0.81532 -20.61521,-1.93272 -26.86712,-2.48311 -6.25192,-0.55039 -13.90192,-1.4427 -17,-1.9829 C 642.94744,418.9693 624.46053,417.39 602,416.02138 c -7.975,-0.48596 -18.325,-1.36149 -23,-1.94564 -4.675,-0.58414 -14.125,-1.54332 -21,-2.1315 -22.2388,-1.90261 -43.23322,-3.75143 -55,-4.84344 -6.325,-0.58698 -14.9875,-1.33819 -19.25,-1.66934 -6.39367,-0.49673 -7.75,-0.89983 -7.75,-2.30331 0,-0.93567 14.50505,-16.08478 32.23344,-33.66468 17.72839,-17.57991 40.72621,-40.62597 51.10625,-51.21347 10.38004,-10.5875 19.46386,-19.25 20.18626,-19.25 0.72241,0 4.1621,1.56807 7.64376,3.48461 3.48166,1.91653 10.38029,5.5561 15.33029,8.08792 10.03681,5.13363 23.05239,11.93585 41,21.42747 13.44709,7.11152 27.36493,14.39419 41.5,21.71535 5.225,2.70625 14.9,7.7798 21.5,11.27454 6.6,3.49475 16.275,8.56746 21.5,11.2727 9.23201,4.77986 23.38783,12.27302 34.19264,18.09931 2.91905,1.57404 5.98236,3.38066 6.80736,4.0147 1.388,1.06673 4.09249,2.43148 20.5,10.34476 3.3,1.59157 12.3,6.2109 20,10.26516 7.7,4.05427 17.45618,9.11951 21.6804,11.25611 8.77091,4.43629 10.98104,6.40988 8.7553,7.81827 -1.90872,1.20779 -2.82215,1.12719 -6.80051,-0.60004 z m 16.55843,-19.18031 c -1.51283,-3.1793 -5.87189,-11.63055 -9.6868,-18.78055 -3.81492,-7.15 -11.25532,-21.55 -16.53423,-32 -5.27891,-10.45 -10.5312,-20.575 -11.67176,-22.5 -1.14056,-1.925 -4.19518,-7.55 -6.78805,-12.5 -9.59509,-18.31784 -16.92687,-32.36401 -24.01097,-46 -4.00026,-7.7 -8.95288,-17.15 -11.00582,-21 -2.05295,-3.85 -7.00421,-13.3 -11.00281,-21 -14.21902,-27.3812 -22.19822,-42.62944 -34.79854,-66.5 -8.59792,-16.28827 -8.39744,-15.8152 -7.43279,-17.53893 0.48737,-0.87089 24.01473,-24.72794 52.28301,-53.01567 39.53139,-39.558588 51.65474,-51.145183 52.51385,-50.188819 1.20481,1.341201 3.09589,14.353347 3.95933,27.243419 0.29473,4.4 1.18433,14.75 1.97689,23 0.79255,8.25 2.14687,22.875 3.00959,32.5 0.86272,9.625 2.02177,22.45 2.57566,28.5 0.55389,6.05 1.61723,18.2 2.36298,27 0.74575,8.8 1.84592,20.725 2.44482,26.5 1.92395,18.55183 3.23495,33.18101 4.16713,46.5 0.50043,7.15 1.35195,16.15 1.89228,20 0.54033,3.85 1.45721,14.2 2.03751,23 0.58031,8.8 1.99534,24.1 3.14452,34 1.14918,9.9 2.43651,23.4 2.86073,30 0.42422,6.6 1.24826,15.825 1.8312,20.5 0.58294,4.675 1.19911,12.76158 1.36927,17.97017 0.25675,7.85929 0.0495,9.52296 -1.21851,9.78055 -1.01198,0.20558 -2.45666,-1.64149 -4.27849,-5.47017 z M 820,406.12229 c -9.10642,-4.67815 -21.79714,-11.49071 -24.5,-13.15196 -1.65,-1.01413 -6.825,-3.7036 -11.5,-5.97659 -4.675,-2.27299 -9.175,-4.51557 -10,-4.9835 -0.825,-0.46793 -5.775,-3.05327 -11,-5.7452 -8.80753,-4.53765 -16.78563,-8.70371 -47,-24.54277 -24.8572,-13.03071 -35.68742,-18.73018 -56.5,-29.73347 -4.95,-2.61698 -14.4,-7.56901 -21,-11.0045 -6.6,-3.43549 -16.725,-8.74469 -22.5,-11.79822 -5.775,-3.05353 -13.5375,-7.10113 -17.25,-8.99467 -3.7125,-1.89354 -6.75,-3.93917 -6.75,-4.54585 0,-0.60667 24.6375,-25.76295 54.75,-55.90284 40.31977,-40.35645 55.27432,-54.72639 56.73933,-54.52126 1.15062,0.1611 2.8685,1.96496 4.07462,4.27854 1.14691,2.2 5.61169,10.75 9.92174,19 4.31004,8.25 10.40236,19.95 13.53848,26 3.13612,6.05 8.07278,15.5 10.97035,21 5.29356,10.04794 10.60638,20.19267 21.73361,41.5 3.30308,6.325 8.37479,16 11.27047,21.5 10.35408,19.66636 19.44943,37.24202 27.16858,52.5 4.31287,8.525 9.02434,17.525 10.46994,20 5.98166,10.24118 13.34242,25.22409 12.81291,26.08085 -0.76707,1.24115 -1.37688,1.1339 -5.45003,-0.95856 z M 461.28518,389.25 c -0.43185,-0.9625 -0.66425,-35.3875 -0.51644,-76.5 L 461.03747,238 h 2.26422 c 1.24533,0 6.0744,2.00165 10.73127,4.44811 4.65687,2.44645 13.86704,7.21457 20.46704,10.59581 6.6,3.38124 15.15,7.8163 19,9.8557 7.83092,4.14815 33.82954,17.7888 42.92125,22.51942 3.25669,1.69453 6.10468,3.63743 6.32887,4.31755 C 563.13941,290.91761 464.37476,391 462.82,391 c -0.4123,0 -1.10297,-0.7875 -1.53482,-1.75 z M 558.5,268.09952 c -1.65,-0.96722 -10.2,-5.49205 -19,-10.05517 -18.88128,-9.79063 -36.26693,-18.91407 -46,-24.13934 -3.85,-2.0669 -9.7,-5.14768 -13,-6.84618 -6.84339,-3.52225 -9.5,-5.38874 -9.5,-6.67451 0,-1.74318 68.76457,-69.62946 70.0846,-69.18945 0.7491,0.2497 1.8744,3.45927 2.58525,7.37365 0.69232,3.81231 1.99586,10.75648 2.89677,15.43148 1.96815,10.21324 4.09714,21.82495 5.86715,32 0.71757,4.125 1.78441,9.525 2.37075,12 0.58634,2.475 2.00626,9.675 3.15538,16 1.14912,6.325 2.72726,14.65 3.50697,18.5 0.77972,3.85 1.64745,9.3625 1.92828,12.25 0.56878,5.84799 0.0143,6.2274 -4.89515,3.34952 z m 23.74483,0.65048 c -1.41106,-1.76373 -2.08324,-4.26498 -3.86351,-14.3765 -0.85926,-4.88042 -2.15777,-12.0235 -2.88557,-15.8735 -0.72779,-3.85 -1.84972,-9.925 -2.49316,-13.5 -0.64345,-3.575 -1.80726,-9.00452 -2.58625,-12.0656 C 569.63735,209.87331 569,206.07784 569,204.5 c 0,-1.57784 -0.63414,-5.37331 -1.40919,-8.4344 -0.77506,-3.06108 -2.37699,-11.1906 -3.55986,-18.0656 -1.18286,-6.875 -2.6285,-14.3 -3.21253,-16.5 -0.58403,-2.2 -1.4868,-6.925 -2.00615,-10.5 -1.65086,-11.36368 -1.95291,-10.51012 3.68773,-10.42105 2.75,0.0434 7.7,0.6247 11,1.29173 3.3,0.66702 9.6,1.89469 14,2.72814 4.4,0.83346 11.375,2.16782 15.5,2.96525 4.125,0.79743 9.75,1.8519 12.5,2.34327 4.92721,0.88041 10.2279,1.88416 24,4.54474 3.85,0.74376 9.925,1.90409 13.5,2.57851 3.575,0.67441 9.65,1.83765 13.5,2.58497 3.85,0.74732 10.00857,1.86461 13.68571,2.48286 4.39629,0.73918 6.89278,1.66373 7.29041,2.69994 0.43299,1.12835 -14.09822,16.28884 -51.1727,53.38874 C 607.82585,246.68419 584.23777,270 583.88546,270 c -0.35232,0 -1.0906,-0.5625 -1.64063,-1.25 z M 682.5,147.37568 c -1.89821,-0.37235 -9.69064,-1.88041 -23,-4.45115 -3.3,-0.63741 -9.15,-1.73535 -13,-2.43987 -3.85,-0.70452 -9.7,-1.79556 -13,-2.42453 -3.3,-0.62897 -9.4875,-1.7998 -13.75,-2.60185 -4.2625,-0.80206 -11.2375,-2.13642 -15.5,-2.96525 -7.83341,-1.52319 -12.43756,-2.37518 -24.25,-4.48743 -10.97135,-1.96185 -12.46737,-2.47839 -12.84414,-4.43481 -0.25727,-1.33586 9.57905,-11.79818 34.98785,-37.214542 C 621.58386,66.910311 638.23892,51 639.15496,51 c 1.07814,0 3.15508,2.909547 5.88916,8.25 2.32299,4.5375 5.45576,10.5 6.9617,13.25 1.50594,2.75 6.22593,11.75 10.48886,20 4.26293,8.25 9.89184,19.05 12.50869,24 12.75974,24.13613 15.06001,28.89246 14.57911,30.14565 -0.50127,1.3063 -2.88965,1.55249 -7.08248,0.73003 z m 24.1299,-4.23214 c -0.89201,-0.98566 -3.72238,-5.80868 -6.28971,-10.71783 C 697.77286,127.51657 693.31073,119 690.42434,113.5 687.53796,108 682.9581,99.225 680.24688,94 675.32897,84.522296 662.71498,60.303297 657.4003,50.134293 c -2.72387,-5.211797 -2.74976,-5.405596 -0.90254,-6.756315 1.59128,-1.163569 14.07103,-1.34876 76.43837,-1.134293 72.25571,0.248472 74.54777,0.314302 74.90147,2.151238 0.26771,1.390313 -12.51087,14.788067 -47.98637,50.311529 -26.59317,26.629138 -49.08209,48.824438 -49.97536,49.322898 -1.14423,0.6385 -2.10336,0.37675 -3.24597,-0.88581 z"/>
    <path
       id="path26"
       d="m 1187,731.07439 c -4.3351,-0.88789 -8.9566,-3.26392 -11.226,-5.77166 -2.2838,-2.52358 -4.774,-9.74559 -4.774,-13.84555 0,-4.54503 3.2616,-11.73118 6.4698,-14.25479 3.2298,-2.54051 10.5038,-3.78526 14.8514,-2.54138 l 3.1788,0.90947 0.5,13.85861 c 0.582,16.13115 1.3741,17.64038 7.1619,13.64528 6.0979,-4.20924 12.5394,-14.90235 18.3544,-30.46923 l 2.5756,-6.89486 -2.7797,-5.60514 c -1.5288,-3.08283 -3.9437,-7.63014 -5.3665,-10.10514 -1.4227,-2.475 -5.2122,-9.45 -8.421,-15.5 -3.2089,-6.05 -7.1901,-13.475 -8.8473,-16.5 -4.4964,-8.20793 -6.909,-12.66014 -11.6508,-21.5 -2.3602,-4.4 -5.407,-10.0185 -6.7706,-12.48556 -1.3637,-2.46706 -4.4514,-8.16331 -6.8616,-12.65834 -7.4338,-13.86399 -7.6141,-14.10534 -11.3779,-15.233 -4.3942,-1.31655 -7.7754,-3.69758 -6.7321,-4.74082 1.5105,-1.51055 33.8343,-0.42268 39.2057,1.31948 6.4635,2.09634 14.8353,10.4713 19.291,19.29824 1.8046,3.575 4.8881,9.425 6.8521,13 1.9639,3.575 5.1523,9.425 7.0852,13 8.8484,16.36538 11.5181,21.0281 12.3254,21.52709 1.2172,0.75226 3.3238,-2.86146 6.4282,-11.02709 6.6019,-17.3651 8.2257,-21.4903 10.7049,-27.19514 1.0027,-2.30732 1.8231,-4.81982 1.8231,-5.58333 0,-0.76351 0.3207,-1.70888 0.7126,-2.10083 1.0592,-1.05917 4.2856,-9.87561 4.2866,-11.71323 8e-4,-1.57784 -2.4977,-3.07965 -10.7898,-6.4855 -2.6583,-1.09189 -4.18,-2.31426 -4,-3.21325 0.2417,-1.20683 3.4873,-1.45095 19.2906,-1.45095 15.8033,0 19.0489,0.24412 19.2906,1.45095 0.1756,0.87696 -1.209,2.06707 -3.5,3.00838 -14.858,6.10468 -12.6384,3.45906 -20.7922,24.7829 -0.7361,1.925 -2.9092,7.55 -4.8292,12.5 -3.4508,8.89654 -5.9375,15.36903 -11.1417,29 -1.4699,3.85 -3.9573,10.15 -5.5275,14 -1.5702,3.85 -3.9675,9.925 -5.3274,13.5 -8.8148,23.17294 -9.7923,25.66018 -12.8495,32.69514 -1.0027,2.30732 -1.8231,4.42071 -1.8231,4.69642 0,1.71288 -7.5941,12.96722 -11.1478,16.52098 -7.0425,7.04244 -15.383,9.89645 -23.8522,8.16185 z M 106.5,685.03781 C 83.882256,680.28253 68.645124,662.30002 76.057907,649.11076 79.925628,642.22908 89.826843,638.55499 96,641.71077 l 3.5,1.78923 0.5,17.34462 0.5,17.34462 4,1.44616 c 5.8343,2.10935 18.88771,2.09545 25.22024,-0.0268 6.61858,-2.21817 14.61363,-9.31423 17.27635,-15.33377 4.43668,-10.02984 4.51889,-33.3032 0.15347,-43.44446 -2.77262,-6.44104 -8.69597,-12.69893 -14.65006,-15.47748 -3.92783,-1.83297 -6.7262,-2.33541 -13.05,-2.34308 -8.70826,-0.0106 -11.03658,-1.04523 -9.36801,-4.16297 0.82842,-1.54791 2.22272,-1.8468 8.61534,-1.8468 11.73858,0 17.50364,-4.1549 22.48567,-16.20554 1.87061,-4.52468 2.196,-7.25729 2.238,-18.79446 0.0454,-12.47645 -0.14634,-13.917 -2.52931,-19 -2.73538,-5.83471 -7.45021,-11.0976 -12.39169,-13.83214 -4.12044,-2.28018 -17.73679,-2.16466 -22.25,0.18877 L 103,531.0514 v 17.36733 c 0,19.81005 0.61528,18.58535 -9.331787,18.57472 -10.091432,-0.0108 -16.028916,-5.74775 -16.034927,-15.49341 -0.01271,-20.61172 29.341404,-33.81334 62.291284,-28.01467 14.75411,2.5965 25.77017,8.04457 33.37966,16.50815 11.50724,12.79882 11.33809,33.26896 -0.37166,44.97871 -4.9094,4.9094 -14.56282,10.19984 -20.93257,11.47184 -6.61575,1.32113 -10,2.71357 -10,4.11447 0,1.4544 1.3863,1.90293 9,2.91189 9.06446,1.20121 21.91285,7.57954 27.59296,13.69797 11.85509,12.76994 13.37028,31.44243 3.80697,46.91522 -2.82891,4.57699 -10.37233,11.22921 -15.17455,13.38179 -2.04896,0.91844 -4.62538,2.09647 -5.72538,2.61784 -7.81136,3.70238 -16.42116,5.10163 -33.5,5.44438 -9.625,0.19316 -19.3,-0.0272 -21.5,-0.48978 z m 138,0.0496 c -17.166,-4.75854 -29.33335,-19.74229 -33.21753,-40.90644 -4.58951,-25.00736 1.04662,-50.6405 13.97796,-63.57184 9.15318,-9.15319 18.08568,-12.58749 32.73957,-12.58749 9.71794,0 16.80751,1.49567 21.42234,4.51942 1.40922,0.92336 3.20176,1.43342 3.98343,1.13346 2.07896,-0.79777 2.74659,-10.7493 1.85665,-27.67453 L 284.5,531.5 l -4.10171,-1 c -4.98309,-1.21488 -8.18043,-3.52811 -6.21148,-4.49392 0.72226,-0.35427 8.73819,-0.36087 17.81319,-0.0147 18.78446,0.71663 22.47744,1.82379 26.23424,7.86504 L 320.5,537.5 l 0.28931,68.9449 c 0.19696,46.93735 0.62963,69.35496 1.35547,70.22955 0.58639,0.70655 3.28999,1.57965 6.008,1.9402 3.81628,0.50625 4.8691,1.02337 4.62249,2.27046 -0.27557,1.39351 -2.17396,1.60967 -13.84788,1.57679 -12.88608,-0.0363 -13.74908,-0.16736 -18.17294,-2.75991 -2.55443,-1.497 -6.09546,-4.74235 -7.86895,-7.2119 C 291.112,670.02054 289.227,668 288.6966,668 c -0.5304,0 -3.71682,2.82104 -7.08094,6.26897 -8.82511,9.04496 -12.94778,10.94299 -24.61566,11.33274 -5.225,0.17453 -10.85,-0.0569 -12.5,-0.51429 z m 31.25984,-9.71395 c 2.05709,-1.62819 5.01005,-5.47943 6.56214,-8.5583 l 2.82199,-5.59794 0.17801,-38.53415 c 0.20434,-44.23062 0.69228,-41.78486 -9.36341,-46.93308 -13.27277,-6.79527 -21.1345,-1.06806 -25.99481,18.93703 -2.93404,12.07658 -3.23975,49.33927 -0.50711,61.81297 2.27471,10.3834 5.23974,17.06674 8.96056,20.19761 4.19811,3.53247 11.95495,2.94022 17.34263,-1.32414 z M 429,685.02292 c -12.08735,-3.00435 -21.74898,-9.70228 -24.04924,-16.67212 -1.57012,-4.7575 -0.704,-12.86495 1.72139,-16.1135 3.85611,-5.16484 6.62875,-6.46597 13.69181,-6.42522 3.62143,0.0209 7.04603,0.32328 7.61023,0.67197 0.63098,0.38997 1.02581,6.70987 1.02581,16.41998 0,19.33229 -0.13863,19.10385 11.57874,19.07952 6.33934,-0.0132 8.71079,-0.46365 11.87475,-2.25573 5.53633,-3.1358 10.09319,-9.56654 12.76502,-18.01428 2.27234,-7.18461 2.28149,-7.46009 2.28149,-68.68162 v -61.46808 l -4.5,-0.88135 c -4.97191,-0.97378 -7,-2.22104 -7,-4.30493 0,-1.13941 5.17625,-1.37756 29.94098,-1.37756 19.71965,0 30.16121,0.35634 30.58609,1.0438 1.13155,1.83088 -1.45444,3.71822 -6.03598,4.40527 -2.44446,0.36656 -4.79246,1.20299 -5.21778,1.85871 C 504.84799,532.9635 504.275,560.275 504,593 l -0.5,59.5 -3.40917,6.75032 c -5.91205,11.70612 -14.44489,18.87683 -28.24405,23.73532 -5.36631,1.8894 -8.89576,2.28656 -22.84678,2.57092 -9.075,0.18496 -18.075,-0.0552 -20,-0.53364 z m 154,0.32466 c -12.56374,-2.45919 -21.74007,-7.07961 -29.5,-14.85368 -10.64105,-10.66044 -15.54221,-25.59976 -15.46438,-47.13723 0.0421,-11.65169 1.57431,-18.78762 5.93668,-27.64883 11.1839,-22.71774 34.32088,-32.19532 62.78829,-25.71991 15.15849,3.44807 19.88371,5.73142 27.16194,13.12536 5.97697,6.07199 9.87288,13.79823 11.2998,22.40938 1.03857,6.26756 0.43857,15.78993 -1.15764,18.37266 -1.66058,2.68688 -28.03815,6.53885 -53.06469,7.74915 -6.875,0.33248 -13.35057,1.04807 -14.39016,1.59021 -1.73709,0.90587 -1.83618,1.82062 -1.2236,11.29568 1.19682,18.51178 7.29126,30.74899 17.47284,35.08421 9.93284,4.22931 25.74525,-0.0357 34.29851,-9.25123 C 630.8568,666.37772 635,658.59975 635,655.64089 c 0,-2.77348 1.67556,-3.79359 4.14782,-2.52526 1.53042,0.78514 1.53042,1.22078 0,6.11487 -3.34789,10.70611 -9.37062,17.32805 -20.73595,22.79899 -6.61471,3.18413 -7.47078,3.3375 -19.91187,3.56731 -7.15,0.13206 -14.125,0.0199 -15.5,-0.24922 z m 21.26097,-59.99462 C 607.86148,624.34149 609,619.7794 609,606.36355 c 0,-19.92455 -3.27466,-29.89276 -11.30464,-34.4118 -5.74755,-3.23455 -12.72488,-0.52569 -16.42572,6.37709 -6.174,11.51572 -9.56502,44.71262 -4.89861,47.9558 1.1292,0.7848 24.56686,0.002 27.88994,-0.93168 z M 712.89637,683.25 c -1.55189,-1.9212 -1.66367,-2.143 -11.96964,-23.75 -12.83497,-26.90917 -18.04047,-37.77877 -24.90304,-52 -3.7157,-7.7 -8.01066,-16.7 -9.54436,-20 -3.94362,-8.48534 -6.02679,-11.15761 -9.20494,-11.80803 -3.43768,-0.70353 -7.03274,-3.26695 -6.01252,-4.28717 1.45485,-1.45485 31.90123,-0.43176 37.07592,1.24585 5.38241,1.74496 13.9607,9.5933 16.86389,15.42887 0.93592,1.88127 5.56693,11.52048 10.29113,21.42048 13.24182,27.74944 13.89164,28.96084 15.72146,29.30782 1.16809,0.2215 1.93416,-0.55104 2.40443,-2.42473 0.37958,-1.51238 1.29289,-3.90478 2.02956,-5.31644 0.73668,-1.41166 1.34219,-3.26415 1.34558,-4.11665 0.003,-0.8525 0.42465,-1.9775 0.93615,-2.5 0.92587,-0.9458 3.2939,-6.98604 5.18583,-13.22776 0.90576,-2.98825 0.338,-4.62789 -6.42803,-18.5633 l -7.42154,-15.28554 -4.88313,-1.8182 c -10.94607,-4.07568 -8.75641,-5.01857 10.90355,-4.69517 19.39498,0.31904 23.7715,1.48704 30.63235,8.17516 3.34881,3.2645 6.36988,8.02764 10.7824,17 8.27198,16.82008 18.3375,37.95488 19.39057,40.71481 0.47218,1.2375 1.45465,2.25 2.18326,2.25 1.73323,0 3.72475,-2.03115 3.72475,-3.79887 0,-0.76938 0.63738,-2.81688 1.41641,-4.55 4.02445,-8.95336 11.90718,-27.46485 12.6263,-29.65113 0.45227,-1.375 1.96819,-5.65 3.36871,-9.5 3.63466,-9.99161 3.48701,-10.9127 -2.16142,-13.48341 -7.01795,-3.194 -9.65742,-4.73885 -10.03573,-5.87378 -0.32491,-0.97473 33.98056,-2.12575 38.03573,-1.27618 2.93388,0.61466 1.9754,2.05984 -2.75,4.14637 -2.475,1.09285 -6.49347,2.86583 -8.92992,3.93996 -4.02341,1.77374 -4.78782,2.71433 -8.33006,10.25 -2.14507,4.56337 -4.69703,10.32204 -5.67102,12.79704 -0.97399,2.475 -2.40046,5.97777 -3.16994,7.78393 C 815.62958,611.59009 815,613.71232 815,614.5 c 0,0.78768 -0.62958,2.90991 -1.39906,4.71607 -0.76948,1.80616 -2.17021,5.30893 -3.11273,7.78393 -0.94252,2.475 -2.31487,6.075 -3.04966,8 -0.73479,1.925 -2.89224,7.325 -4.79432,12 -1.90208,4.675 -5.12128,12.775 -7.15376,18 -7.75366,19.93265 -7.46453,19.42761 -11.34307,19.81349 -3.13793,0.3122 -3.18012,0.25253 -10.25297,-14.5 -3.90614,-8.14742 -9.92367,-20.66349 -13.37229,-27.81349 -3.44862,-7.15 -7.48396,-15.58618 -8.96741,-18.74706 -2.32515,-4.95433 -2.9494,-5.61208 -4.52566,-4.7685 -1.00565,0.53821 -2.51437,2.89939 -3.3527,5.24706 -1.94987,5.46045 -4.36332,11.67578 -9.61774,24.7685 -2.31765,5.775 -4.93358,12.3 -5.81317,14.5 -0.8796,2.2 -2.41966,5.88781 -3.42236,8.19514 -1.00271,2.30732 -1.8231,4.51861 -1.8231,4.91398 0,0.39536 -0.7616,2.44505 -1.69245,4.55486 -1.34943,3.05856 -2.23005,3.83602 -4.34501,3.83602 -1.45891,0 -3.28869,-0.7875 -4.06617,-1.75 z M 888,682.90946 c -26.81075,-7.03947 -39.02046,-25.38315 -38.9871,-58.57359 0.01,-9.80248 0.46316,-14.27182 1.9182,-18.91213 7.80045,-24.87675 25.77334,-37.80042 52.5689,-37.80042 28.98762,0 49.82266,15.51423 53.11107,39.54767 0.69378,5.07045 -0.17924,14.51226 -1.54638,16.72434 -1.6318,2.64031 -27.68791,6.4696 -54.06469,7.94551 -6.875,0.3847 -13.0625,1.05444 -13.75,1.48832 -2.5241,1.59296 -0.66814,25.24864 2.57133,32.77377 2.61156,6.0665 7.5123,11.52844 12.51082,13.94346 10.01194,4.83724 27.45733,-0.20897 36.55873,-10.57489 C 942.09769,665.81915 946,658.17166 946,655.53954 c 0,-1.92072 2.37835,-3.54178 3.85625,-2.62838 1.64903,1.01915 0.63261,7.07942 -2.09769,12.50724 -2.93426,5.8333 -10.88525,13.02425 -18.2464,16.50223 -6.32233,2.98716 -6.92917,3.07755 -20.26483,3.01871 -10.3147,-0.0455 -15.62004,-0.55236 -21.24733,-2.02988 z m 26.58843,-57.43955 c 1.24708,-0.25493 2.7994,-2.00355 3.8532,-4.34047 1.48311,-3.28896 1.6927,-5.96569 1.31319,-16.7715 -0.6273,-17.8614 -3.97044,-27.20627 -11.25482,-31.45993 -3.82017,-2.23077 -5.62513,-2.28285 -9.81823,-0.2833 -6.2597,2.98504 -10.00962,12.68811 -11.61784,30.06162 -0.60196,6.50302 -1.29025,13.95139 -1.52952,16.55193 -0.69357,7.53824 0.35832,8.05471 14.86579,7.29891 6.65489,-0.34669 13.03959,-0.82246 14.18823,-1.05726 z m 62.09305,56.87824 c -1.75726,-1.75726 -0.29419,-3.12939 3.9583,-3.71225 2.6342,-0.36106 5.21399,-1.39239 5.96819,-2.38593 1.07479,-1.41585 1.3345,-15.2347 1.36023,-72.37753 0.035,-77.80672 0.49972,-72.43542 -6.36296,-73.54907 -4.1662,-0.67609 -6.49452,-2.83409 -4.84138,-4.48723 0.72052,-0.72052 6.33866,-0.92983 16.90762,-0.62991 17.47912,0.49603 20.76302,1.35242 25.82852,6.73562 l 3,3.18817 0.5,69.89995 c 0.5587,78.10518 -0.092,72.11252 8,73.66818 2.8975,0.55703 4.5,1.38801 4.5,2.33348 0,1.25141 -4.295,1.5075 -29.0685,1.73319 -15.9877,0.14564 -29.3752,-0.0419 -29.75002,-0.41667 z m 75.82762,-0.33337 c -0.9825,-1.58983 0.3885,-3.01478 2.9007,-3.01478 4.1408,0 8.5823,-2.11765 9.1235,-4.34993 0.2867,-1.18254 0.3965,-23.52329 0.244,-49.64612 l -0.2773,-47.49605 -5.6751,-2.01236 c -11.3138,-4.01186 -8.6845,-5.5552 8.1123,-4.76155 16.0529,0.75849 20.4228,2.49444 26.4722,10.51601 1.5554,2.0625 3.5832,3.75 4.5063,3.75 0.9231,0 3.3994,-1.76242 5.5027,-3.91648 2.1034,-2.15407 7.1462,-5.58006 11.2062,-7.6133 7.322,-3.66685 7.4658,-3.69371 17.7325,-3.31367 9.4924,0.35138 10.6547,0.61505 14.0173,3.17989 4.8232,3.67877 6.4245,6.27366 7.5486,12.23251 1.3462,7.13531 -0.2302,13.36723 -4.4047,17.41332 -2.9907,2.89874 -4.1685,3.33129 -10.2565,3.76688 -10.0826,0.72141 -10.2618,0.42984 -10.2618,-16.69813 0,-16.34808 -0.268,-16.86052 -7.5236,-14.38827 -6.4409,2.19463 -12.658,6.50192 -16.9565,11.74766 L 1101,591.70598 v 42.02457 c 0,46.75245 -0.4708,43.78123 7.1434,45.08107 2.8327,0.48358 4.3566,1.25873 4.3566,2.21606 0,1.25741 -4.3325,1.51097 -29.6819,1.7371 -19.2831,0.17201 -29.9015,-0.0907 -30.309,-0.75 z"/>
</svg>
